# This file uses centimeters as units for non-parametric coordinates.

mtllib PlaneVertical.mtl
g default
v 0.000000 0.500000 0.500000
v -0.000000 -0.500000 0.500000
v 0.000000 0.500000 -0.500000
v -0.000000 -0.500000 -0.500000
vt 0.001992 0.001992
vt 0.998008 0.001992
vt 0.998008 0.998008
vt 0.001992 0.998008
vn 1.000000 -0.000000 0.000000
vn 1.000000 -0.000000 0.000000
vn 1.000000 -0.000000 0.000000
vn 1.000000 -0.000000 0.000000
s off
g pPlane1
usemtl initialShadingGroup
f 1/1/1 2/2/2 4/3/3 3/4/4
